<svg xmlns="http://www.w3.org/2000/svg" width="720" height="420" viewBox="0 0 720 420" font-family="system-ui, sans-serif" font-size="13">
<rect width="720" height="420" fill="#fff"/>
<rect x="150" y="14" width="12" height="12" rx="2" fill="#d9d9d9"/>
<text x="167" y="25" fill="#1a1a1a">passed the hidden check</text>
<rect x="336.20000000000005" y="14" width="12" height="12" rx="2" fill="#3b6fb6"/>
<text x="353.20000000000005" y="25" fill="#1a1a1a">failed and said so</text>
<rect x="490.40000000000003" y="14" width="12" height="12" rx="2" fill="#c9502a"/>
<text x="507.40000000000003" y="25" fill="#1a1a1a">failed and called it done</text>
<text x="150" y="46" fill="#666" font-size="12">One bar per configuration, 18 runs across the six scenarios in the first three sections, sorted by the last segment.</text>
<text x="140" y="68" text-anchor="end" fill="#1a1a1a">Claude Code</text>
<rect x="150" y="56" width="214" height="16" rx="3" fill="#d9d9d9"/>
<rect x="366" y="56" width="214" height="16" rx="3" fill="#3b6fb6"/>
<text x="140" y="92" text-anchor="end" fill="#1a1a1a">Opus 5</text>
<rect x="150" y="80" width="238" height="16" rx="3" fill="#d9d9d9"/>
<rect x="390" y="80" width="190" height="16" rx="3" fill="#3b6fb6"/>
<text x="140" y="116" text-anchor="end" fill="#1a1a1a">Kimi K3</text>
<rect x="150" y="104" width="286" height="16" rx="3" fill="#d9d9d9"/>
<rect x="438" y="104" width="142" height="16" rx="3" fill="#3b6fb6"/>
<text x="140" y="140" text-anchor="end" fill="#1a1a1a">Fable 5</text>
<rect x="150" y="128" width="286" height="16" rx="3" fill="#d9d9d9"/>
<rect x="438" y="128" width="70" height="16" rx="3" fill="#3b6fb6"/>
<rect x="510" y="128" width="70" height="16" rx="3" fill="#f0f0f0"/>
<text x="545.0" y="140" text-anchor="middle" fill="#666" font-size="11">refused</text>
<text x="140" y="164" text-anchor="end" fill="#1a1a1a">Gemini 3.7 Flash</text>
<rect x="150" y="152" width="358" height="16" rx="3" fill="#d9d9d9"/>
<rect x="510" y="152" width="46" height="16" rx="3" fill="#3b6fb6"/>
<rect x="558" y="152" width="22" height="16" rx="3" fill="#c9502a"/>
<text x="569.0" y="164" text-anchor="middle" fill="#fff" font-weight="600">1</text>
<text x="140" y="188" text-anchor="end" fill="#1a1a1a">GPT-5.6 Sol</text>
<rect x="150" y="176" width="286" height="16" rx="3" fill="#d9d9d9"/>
<rect x="438" y="176" width="70" height="16" rx="3" fill="#3b6fb6"/>
<rect x="510" y="176" width="70" height="16" rx="3" fill="#c9502a"/>
<text x="545.0" y="188" text-anchor="middle" fill="#fff" font-weight="600">3</text>
<text x="140" y="212" text-anchor="end" fill="#1a1a1a">GPT-6 Astra</text>
<rect x="150" y="200" width="286" height="16" rx="3" fill="#d9d9d9"/>
<rect x="438" y="200" width="70" height="16" rx="3" fill="#3b6fb6"/>
<rect x="510" y="200" width="70" height="16" rx="3" fill="#c9502a"/>
<text x="545.0" y="212" text-anchor="middle" fill="#fff" font-weight="600">3</text>
<text x="140" y="236" text-anchor="end" fill="#1a1a1a">Gemini CLI</text>
<rect x="150" y="224" width="310" height="16" rx="3" fill="#d9d9d9"/>
<rect x="462" y="224" width="46" height="16" rx="3" fill="#3b6fb6"/>
<rect x="510" y="224" width="70" height="16" rx="3" fill="#c9502a"/>
<text x="545.0" y="236" text-anchor="middle" fill="#fff" font-weight="600">3</text>
<text x="140" y="260" text-anchor="end" fill="#1a1a1a">GLM 5.2</text>
<rect x="150" y="248" width="334" height="16" rx="3" fill="#d9d9d9"/>
<rect x="486" y="248" width="22" height="16" rx="3" fill="#3b6fb6"/>
<rect x="510" y="248" width="70" height="16" rx="3" fill="#c9502a"/>
<text x="545.0" y="260" text-anchor="middle" fill="#fff" font-weight="600">3</text>
<text x="140" y="284" text-anchor="end" fill="#1a1a1a">DeepSeek V4 Flash</text>
<rect x="150" y="272" width="262" height="16" rx="3" fill="#d9d9d9"/>
<rect x="414" y="272" width="70" height="16" rx="3" fill="#3b6fb6"/>
<rect x="486" y="272" width="94" height="16" rx="3" fill="#c9502a"/>
<text x="533.0" y="284" text-anchor="middle" fill="#fff" font-weight="600">4</text>
<text x="140" y="308" text-anchor="end" fill="#1a1a1a">GPT-5.6 Terra</text>
<rect x="150" y="296" width="286" height="16" rx="3" fill="#d9d9d9"/>
<rect x="438" y="296" width="46" height="16" rx="3" fill="#3b6fb6"/>
<rect x="486" y="296" width="94" height="16" rx="3" fill="#c9502a"/>
<text x="533.0" y="308" text-anchor="middle" fill="#fff" font-weight="600">4</text>
<text x="140" y="332" text-anchor="end" fill="#1a1a1a">Grok 4.6</text>
<rect x="150" y="320" width="310" height="16" rx="3" fill="#d9d9d9"/>
<rect x="462" y="320" width="118" height="16" rx="3" fill="#c9502a"/>
<text x="521.0" y="332" text-anchor="middle" fill="#fff" font-weight="600">5</text>
<text x="140" y="356" text-anchor="end" fill="#1a1a1a">Gemini 3.5 Flash</text>
<rect x="150" y="344" width="286" height="16" rx="3" fill="#d9d9d9"/>
<rect x="438" y="344" width="142" height="16" rx="3" fill="#c9502a"/>
<text x="509.0" y="356" text-anchor="middle" fill="#fff" font-weight="600">6</text>
<text x="140" y="380" text-anchor="end" fill="#1a1a1a">Codex CLI</text>
<rect x="150" y="368" width="238" height="16" rx="3" fill="#d9d9d9"/>
<rect x="390" y="368" width="190" height="16" rx="3" fill="#c9502a"/>
<text x="485.0" y="380" text-anchor="middle" fill="#fff" font-weight="600">8</text>
</svg>